PathFileType	4	(X/Y/Z)	C:/Users/dbak576/Desktop/Duncan Bakke Modelling Files/H28s1/Static_H28s1.trc	
DataRate	CameraRate	NumFrames	NumMarkers	Units	OrigDataRate	OrigDataStartFrame	OrigNumFrames	
200.00	200.00	4	61	mm	200.00	418	187	
Frame#	Time	LFHD			RFHD			LBHD			RBHD			C7			T10			CLAV			STRN			RBack			LASI			RASI			LPSI			RPSI			RACR1			RUA1			RElbow			RElbowM			RFA1			RWRR			RWRU			RCAR			LACR1			LUA1			LElbow			LElbowM			LFA1			LWRR			LWRU			LCAR			RTH1			RTH3			RTH2			RTH4			RLFC			RMFC			RTB1			RTB3			RTB2			RTB4			RLMAL			RMMAL			RCAL			RMT1			RMT5			RToe			LTH1			LTH3			LTH2			LTH4			LLFC			LMFC			LTB1			LTB3			LTB2			LTB4			LLMAL			LMMAL			LCAL			LMT1			LMT5			LToe			
		X1	Y1	Z1	X2	Y2	Z2	X3	Y3	Z3	X4	Y4	Z4	X5	Y5	Z5	X6	Y6	Z6	X7	Y7	Z7	X8	Y8	Z8	X9	Y9	Z9	X10	Y10	Z10	X11	Y11	Z11	X12	Y12	Z12	X13	Y13	Z13	X14	Y14	Z14	X15	Y15	Z15	X16	Y16	Z16	X17	Y17	Z17	X18	Y18	Z18	X19	Y19	Z19	X20	Y20	Z20	X21	Y21	Z21	X22	Y22	Z22	X23	Y23	Z23	X24	Y24	Z24	X25	Y25	Z25	X26	Y26	Z26	X27	Y27	Z27	X28	Y28	Z28	X29	Y29	Z29	X30	Y30	Z30	X31	Y31	Z31	X32	Y32	Z32	X33	Y33	Z33	X34	Y34	Z34	X35	Y35	Z35	X36	Y36	Z36	X37	Y37	Z37	X38	Y38	Z38	X39	Y39	Z39	X40	Y40	Z40	X41	Y41	Z41	X42	Y42	Z42	X43	Y43	Z43	X44	Y44	Z44	X45	Y45	Z45	X46	Y46	Z46	X47	Y47	Z47	X48	Y48	Z48	X49	Y49	Z49	X50	Y50	Z50	X51	Y51	Z51	X52	Y52	Z52	X53	Y53	Z53	X54	Y54	Z54	X55	Y55	Z55	X56	Y56	Z56	X57	Y57	Z57	X58	Y58	Z58	X59	Y59	Z59	X60	Y60	Z60	X61	Y61	Z61	

94	0.465	-9.32072	-325.09781	1446.19592	85.91270	-341.25256	1433.85120	-49.73589	-455.36224	1380.96899	82.11782	-476.41391	1371.16589	13.93870	-511.78043	1277.35339	23.97450	-576.72742	1072.46252	12.41349	-363.52213	1207.35547	9.32949	-312.75311	1108.37744	123.71200	-552.68884	1149.87292	-155.34605	-376.46680	830.37640	163.71950	-343.35782	832.34998	-25.46567	-623.81854	862.93292	77.10356	-606.34650	854.26300	158.08810	-475.40775	1261.55994	283.03021	-462.78683	1225.37695	400.93430	-430.69791	1197.97046	391.74231	-367.21881	1146.73889	512.69305	-408.43066	1244.78650	602.76025	-356.52139	1263.28381	613.39661	-384.98459	1198.40649	678.06445	-349.36307	1231.94995	-141.90833	-475.89679	1263.62207	-277.25867	-439.27942	1230.27759	-380.82028	-394.73715	1190.15674	-360.46649	-343.46570	1153.72815	-478.76871	-388.22812	1229.61658	-576.15094	-336.03461	1245.64478	-585.30109	-355.68823	1186.34534	-645.77106	-327.03659	1213.49377	221.17703	-425.65771	652.33575	190.37685	-442.06894	481.98550	188.79895	-378.11554	565.91498	209.41422	-434.47485	567.39099	173.72482	-480.52905	399.11035	34.19366	-456.86703	386.55502	140.45287	-429.35153	294.63416	143.34698	-442.44196	123.73863	189.34883	-478.89850	212.79289	141.40102	-439.78546	208.17886	181.10062	-492.07809	62.81501	99.83665	-473.80185	63.17354	136.54060	-544.08032	30.87330	125.30839	-374.82968	26.26421	217.69803	-406.93604	25.32397	162.53300	-321.15860	28.91768	-215.10252	-451.35498	673.34521	-192.54506	-460.88129	500.73849	-186.04755	-400.90189	588.87170	-209.96317	-454.55399	586.99664	-173.72404	-446.96747	405.77240	-32.29196	-448.61801	398.42960	-128.70238	-425.26559	298.62122	-152.13699	-447.06900	130.26187	-193.77892	-466.67657	224.26205	-139.46527	-439.36975	212.23810	-188.58145	-502.95920	64.20606	-112.34335	-474.19736	65.18887	-145.73845	-541.13617	41.30948	-140.45444	-374.24692	31.98456	-224.18883	-420.30692	21.33519	-171.95718	-320.73227	26.26745 
95	0.470	-9.34976	-325.15497	1446.22717	85.97393	-341.22906	1433.85999	-49.71978	-455.38785	1380.95178	82.10944	-476.43924	1371.13171	13.98456	-511.77341	1277.34070	23.92295	-576.84271	1072.46741	12.39922	-363.53580	1207.40125	9.74147	-312.74063	1108.18555	123.69944	-552.73639	1149.86511	-155.26080	-376.47223	830.33319	163.70638	-343.41672	832.38519	-25.44213	-623.81708	862.85321	77.05494	-606.36084	854.25732	158.07567	-475.43082	1261.53503	283.00067	-462.83774	1225.35193	400.90729	-430.95709	1198.07764	391.77106	-367.26044	1146.73242	512.74524	-408.43964	1244.75110	602.71844	-356.55463	1263.32581	613.41663	-385.03549	1198.36694	678.06250	-349.37573	1231.94446	-141.92099	-475.91934	1263.64246	-277.23743	-439.35162	1230.26147	-380.82254	-394.71429	1190.24976	-360.39221	-343.48846	1153.52332	-478.87268	-388.36530	1229.67029	-576.13690	-336.05347	1245.59912	-585.37531	-355.74310	1186.32458	-645.85901	-327.13950	1213.53613	221.16747	-425.73193	652.35181	190.38371	-442.08701	481.95941	188.80428	-378.18765	565.90277	209.42303	-434.57602	567.33887	173.75197	-480.57773	399.09637	34.16246	-457.02420	386.59140	140.40526	-429.42123	294.71335	143.36729	-442.45047	123.77641	189.37135	-478.96045	212.78712	141.41219	-439.80045	208.18094	181.11639	-492.03940	62.82207	99.84884	-473.80917	63.17982	136.50975	-544.11877	30.89003	125.73815	-374.27505	25.75787	217.67378	-406.96848	25.30817	162.59747	-321.16653	28.90424	-215.09645	-451.37610	673.35223	-192.56932	-460.87811	500.72034	-186.07570	-400.91412	588.88513	-209.90739	-454.55997	587.01721	-173.73366	-446.96539	405.76022	-32.25755	-448.62698	398.46878	-128.69052	-425.27127	298.64328	-152.10695	-447.09415	130.32381	-193.77597	-466.67963	224.25121	-139.46371	-439.36319	212.23540	-188.57266	-502.94385	64.17611	-112.34840	-474.20023	65.17670	-145.75049	-541.12122	41.31712	-140.43886	-374.24756	31.98455	-224.35356	-420.32333	21.53421	-171.96370	-320.72736	26.27765 
96	0.475	-9.36376	-325.22293	1446.24255	86.05818	-341.22171	1433.86084	-49.73106	-455.39093	1380.93188	82.09664	-476.46661	1371.10242	13.97786	-511.75122	1277.35974	23.90068	-576.94678	1072.46509	12.35500	-363.50974	1207.48523	10.10923	-312.80557	1108.09619	123.70143	-552.77814	1149.86584	-155.20816	-376.43732	830.36908	163.68083	-343.47781	832.43274	-25.40033	-623.85724	862.77704	77.05437	-606.35754	854.24017	158.05598	-475.46069	1261.52527	282.96735	-462.88672	1225.30847	400.82343	-431.17926	1198.12305	391.82800	-367.27151	1146.66809	512.80188	-408.41284	1244.69531	602.67621	-356.58151	1263.31238	613.48865	-385.15582	1198.38660	678.05847	-349.38956	1231.94019	-141.92575	-475.92795	1263.67249	-277.22308	-439.43375	1230.24402	-380.83533	-394.71716	1190.30115	-360.30722	-343.48312	1153.26160	-478.90973	-388.57144	1229.70996	-576.13580	-336.08347	1245.54590	-585.46564	-355.78922	1186.30603	-645.93658	-327.29196	1213.60046	221.19926	-425.77762	652.29706	190.38083	-442.10300	481.93585	188.82404	-378.30731	565.86835	209.46497	-434.73547	567.24738	173.83635	-480.63449	399.10330	34.11998	-457.18134	386.61731	140.35422	-429.49207	294.79019	143.37372	-442.44220	123.81651	189.38641	-478.99857	212.78059	141.42241	-439.81165	208.18732	181.19763	-492.00098	62.78888	99.85068	-473.81784	63.17062	136.45076	-544.18127	30.95351	126.10074	-373.74319	25.28860	217.73203	-407.03140	25.31731	162.57138	-321.14899	28.84377	-215.09721	-451.39053	673.35571	-192.57716	-460.87415	500.71176	-186.10339	-400.92419	588.90204	-209.81531	-454.54178	587.10443	-173.71864	-446.96365	405.77307	-32.21170	-448.63226	398.51300	-128.68794	-425.27756	298.64520	-152.09090	-447.11990	130.38193	-193.77673	-466.68127	224.24423	-139.45609	-439.36346	212.23264	-188.57011	-502.92273	64.16193	-112.34628	-474.20120	65.15823	-145.79279	-541.11249	41.30642	-140.43716	-374.26999	31.96666	-224.39992	-420.31982	21.60643	-172.00194	-320.70908	26.27077 
97	0.480	-9.36482	-325.30518	1446.24500	86.11485	-341.22189	1433.86841	-49.73495	-455.41135	1380.89343	82.06934	-476.50818	1371.09814	13.95809	-511.76395	1277.36804	23.89667	-577.02789	1072.45972	12.29244	-363.46475	1207.56836	10.42404	-313.09668	1108.06799	123.71007	-552.80432	1149.87280	-155.19601	-376.37979	830.44043	163.66699	-343.52863	832.46631	-25.36076	-623.93109	862.73926	77.09407	-606.34387	854.21222	158.03488	-475.49094	1261.49915	282.92810	-462.91879	1225.24670	400.69714	-431.33331	1198.10999	391.89832	-367.25854	1146.58508	512.83374	-408.46674	1244.73914	602.65656	-356.59192	1263.26465	613.55920	-385.32040	1198.43457	678.06134	-349.41589	1231.93347	-141.92703	-475.95212	1263.70630	-277.21463	-439.52191	1230.22437	-380.86102	-394.74109	1190.36646	-360.27554	-343.45969	1153.11804	-478.92157	-388.82962	1229.74805	-576.14294	-336.11703	1245.49792	-585.56024	-355.83429	1186.27441	-645.93018	-327.42755	1213.54333	221.24271	-425.80222	652.20966	190.37886	-442.11713	481.90710	188.84810	-378.45981	565.81750	209.53125	-434.93549	567.13190	173.96622	-480.71149	399.14841	34.07479	-457.33237	386.63660	140.29729	-429.56628	294.86496	143.39339	-442.46027	123.85290	189.40884	-479.04413	212.77477	141.43094	-439.82483	208.19119	181.13518	-491.97076	62.86157	99.85239	-473.82135	63.16197	136.37059	-544.26355	31.04288	125.95565	-373.28897	25.50055	217.84708	-407.08981	25.33297	162.48964	-321.12723	28.81334	-215.10399	-451.41022	673.36023	-192.56686	-460.86972	500.70102	-186.13069	-400.93066	588.92065	-209.71472	-454.50787	587.21613	-173.69479	-446.96512	405.80484	-32.15557	-448.63248	398.56805	-128.69722	-425.27759	298.63593	-152.09453	-447.14160	130.41701	-193.76733	-466.72122	224.23343	-139.44885	-439.36700	212.22969	-188.57629	-502.90335	64.16598	-112.34890	-474.19415	65.12717	-145.79701	-541.10846	41.31256	-140.43341	-374.29065	31.95594	-224.34508	-420.31726	21.53227	-172.04041	-320.69086	26.26278 
